<svg width="24" height="25" viewBox="0 0 24 25" fill="none" xmlns="http://www.w3.org/2000/svg">
<path fill-rule="evenodd" clip-rule="evenodd" d="M6.72 21.4087C8.252 22.3625 10.062 22.9132 12 22.9132C13.934 22.9132 15.741 22.3645 17.272 21.4137L18.512 22.992C16.636 24.2042 14.4 24.9085 12 24.9085C9.597 24.9085 7.358 24.2022 5.48 22.987L6.72 21.4087ZM13.125 20.4191L12.531 20.8092C12.454 20.878 12.341 20.9179 12.224 20.9179H11.777C11.659 20.9179 11.546 20.878 11.469 20.8092L10.875 20.4191H13.125ZM24 19.9202H18C18 18.8178 18.895 17.9249 20 17.9249H22C22.53 17.9249 23.039 18.1354 23.414 18.5096C23.789 18.8837 24 19.3905 24 19.9202ZM6 19.9202H0C0 18.8178 0.895 17.9249 2 17.9249H4C4.53 17.9249 5.039 18.1354 5.414 18.5096C5.789 18.8837 6 19.3905 6 19.9202ZM13.146 19.4214C13.284 19.4214 13.396 19.5332 13.396 19.6708C13.396 19.8085 13.284 19.9202 13.146 19.9202H10.867C10.729 19.9202 10.617 19.8085 10.617 19.6708C10.617 19.5332 10.729 19.4214 10.867 19.4214H13.146ZM13.393 18.9226C13.393 16.9253 15 16.0992 15 14.3194C15 12.4638 13.499 11.4402 11.999 11.4402C10.499 11.4402 9 12.4618 9 14.3194C9 16.0992 10.607 16.9522 10.607 18.9226H13.393ZM21 12.9367C22.242 12.9367 23.25 13.9423 23.25 15.1814C23.25 16.4205 22.242 17.4261 21 17.4261C19.758 17.4261 18.75 16.4205 18.75 15.1814C18.75 13.9423 19.758 12.9367 21 12.9367ZM3 12.9367C4.242 12.9367 5.25 13.9423 5.25 15.1814C5.25 16.4205 4.242 17.4261 3 17.4261C1.758 17.4261 0.75 16.4205 0.75 15.1814C0.75 13.9423 1.758 12.9367 3 12.9367ZM15.87 15.3161L17.219 15.9266L16.806 16.8355L15.508 16.2489C15.658 15.9496 15.783 15.6423 15.87 15.3161ZM8.131 15.3161C8.218 15.6473 8.339 15.9456 8.491 16.2489L7.195 16.8355L6.781 15.9266L8.131 15.3161ZM17.5 13.4355V14.4332H15.999C16.009 14.0989 15.979 13.7627 15.906 13.4355H17.5ZM8.094 13.4355C8.022 13.7617 7.992 14.0969 8.002 14.4302V14.4332H6.5V13.4355H8.094ZM15.022 11.7255L16.264 10.8456L16.843 11.6597L15.591 12.5456C15.445 12.2553 15.256 11.9809 15.022 11.7255ZM8.978 11.7245C8.748 11.9759 8.56 12.2483 8.409 12.5456L7.158 11.6597L7.736 10.8456L8.978 11.7245ZM13.413 10.681L14.076 9.33914L14.973 9.7811L14.309 11.1229C14.031 10.9394 13.729 10.7917 13.413 10.681ZM10.587 10.68C10.272 10.7897 9.969 10.9374 9.69 11.1209L9.027 9.7811L9.924 9.33914L10.587 10.68ZM8 1.64724V3.79119C5.062 5.07318 2.859 7.72394 2.202 10.9324L0.168 10.9294C0.9 6.61156 3.953 3.07588 8 1.64724ZM16 1.64724C20.047 3.07588 23.1 6.61156 23.832 10.9294L21.798 10.9324C21.141 7.72394 18.938 5.07318 16 3.79119V1.64724ZM12.5 10.4725C12.166 10.4336 11.846 10.4316 11.5 10.4715V8.94606H12.5V10.4725ZM15 7.94841H9C9 6.84601 9.895 5.95311 11 5.95311H13C13.53 5.95311 14.039 6.16361 14.414 6.53773C14.789 6.91185 15 7.41966 15 7.94841ZM12 0.964844C13.242 0.964844 14.25 1.97048 14.25 3.20956C14.25 4.44865 13.242 5.45428 12 5.45428C10.758 5.45428 9.75 4.44865 9.75 3.20956C9.75 1.97048 10.758 0.964844 12 0.964844Z" fill="#1E1E1E"/>
</svg>
