<svg width="20" height="25" viewBox="0 0 20 25" fill="none" xmlns="http://www.w3.org/2000/svg">
<path d="M12.5896 4.08601C11.9725 3.71289 11.591 3.01852 11.593 2.27028V2.26729C11.593 1.09804 10.6931 0.150269 9.58333 0.150269C8.47358 0.150269 7.57371 1.09804 7.57371 2.26729V2.27028C7.57562 3.01952 7.19421 3.71289 6.57704 4.08601C2.10354 6.79164 4.67379 15.7735 0 17.3608V19.1057H19.1667V17.3608C14.4929 15.7735 17.0631 6.79164 12.5896 4.08601ZM9.58333 1.14792C10.1123 1.14792 10.5417 1.59587 10.5417 2.14557C10.5417 2.69628 10.1123 3.14323 9.58333 3.14323C9.05433 3.14323 8.625 2.69628 8.625 2.14557C8.625 1.59587 9.05433 1.14792 9.58333 1.14792ZM12.4583 21.101C12.4583 22.6952 11.1243 24.0939 9.61112 24.0939C8.09792 24.0939 6.70833 22.6952 6.70833 21.101H12.4583ZM17.2644 8.60936C17.0286 7.1089 16.3702 4.93601 14.5647 3.10731L15.9026 1.67668C17.6276 3.42456 18.7527 5.71118 19.1561 8.28712L17.2644 8.60936ZM0 8.28812C0.403458 5.71118 1.52854 3.42556 3.25354 1.67668L4.59137 3.10731C2.78587 4.93601 2.12654 7.1089 1.89175 8.60936L0 8.28812Z" fill="#1E1E1E"/>
</svg>