<svg width="20" height="25" viewBox="0 0 20 25" fill="none" xmlns="http://www.w3.org/2000/svg">
<path fill-rule="evenodd" clip-rule="evenodd" d="M10.5004 17.6785C11.9154 16.6269 14.1244 15.8368 16.0004 15.6832V22.1469C14.2614 22.4093 12.2454 23.2484 10.5004 24.1423V17.6785ZM9.50038 17.6785C8.08538 16.6269 5.87638 15.8368 4.00038 15.6832V22.1469C5.73938 22.4093 7.75538 23.2484 9.50038 24.1423V17.6785ZM3.00038 20.5886C0.951376 19.9162 0.004376 19.155 0.004376 19.155L0.000376052 17.1347C-0.00762395 15.0127 0.0883758 13.7986 2.64838 13.2349C5.45338 12.6174 8.44738 11.921 6.88938 9.72218C2.98838 4.21214 6.08038 0.199585 10.0004 0.199585C13.9214 0.199585 16.9964 4.18122 13.1104 9.72218C11.5814 11.9021 14.4864 12.6034 17.3524 13.2349C19.9224 13.8016 20.0094 15.0217 19.9994 17.1597L19.9964 19.155C19.9964 19.155 19.0494 19.9162 17.0004 20.5886V14.5997L15.9184 14.6885C13.8644 14.8571 11.5584 15.6881 10.0004 16.8115C8.44138 15.6881 6.13738 14.8571 4.08238 14.6885L3.00038 14.5997V20.5886Z" fill="#1E1E1E"/>
</svg>
