<svg width="23" height="25" viewBox="0 0 23 25" fill="none" xmlns="http://www.w3.org/2000/svg">
<path fill-rule="evenodd" clip-rule="evenodd" d="M10.936 12.5111L12.7266 10.228C13.134 9.68544 12.9414 9.2426 12.6739 8.06865C12.4774 7.19991 12.6317 6.21947 13.2222 5.57514C14.9103 3.73593 18.3441 0.150269 18.3441 0.150269L18.7965 0.519308L15.2564 5.23503L16.0137 5.85043L19.7235 1.27235L20.1827 1.64438L16.7719 6.46682L17.5292 7.08322L21.2534 2.51511L21.6781 2.86121L18.2865 7.69862L19.0448 8.31401L22.5849 3.59829L23 3.93541C23 3.93541 20.5556 8.28409 19.2634 10.4534C18.8042 11.2224 17.8974 11.6114 17.026 11.6174C15.8651 11.6244 15.4107 11.5286 14.9966 12.0802L12.81 14.8679C15.1538 17.8223 17.1803 20.3846 18.1523 21.6792C18.8914 22.6637 18.2146 24.0939 17.0039 24.0939C16.6013 24.0939 16.1862 23.9234 15.8852 23.5224L7.87131 13.4766C7.87131 13.4766 6.98365 14.1937 6.00779 14.9906C2.9671 9.82009 0.000216671 3.35991 0.000216671 1.07187C0.000216671 0.944202 -0.0323758 0.150269 0.701915 0.150269C0.936773 0.150269 1.17451 0.265967 1.34801 0.493375C1.83594 1.13371 6.53885 6.98946 10.936 12.5111ZM8.10617 16.1187L9.97832 18.4776L6.03367 23.5194C5.75088 23.8964 5.32814 24.0939 4.9006 24.0939C3.75219 24.0939 2.99202 22.6956 3.76082 21.6722L8.10617 16.1187Z" fill="#1E1E1E"/>
</svg>