<svg width="22" height="25" viewBox="0 0 22 25" fill="none" xmlns="http://www.w3.org/2000/svg">
<path fill-rule="evenodd" clip-rule="evenodd" d="M6.902 14.0493C5.18 12.6626 4 10.0906 4 8.02646C4 4.93972 6.158 3.14794 8.187 3.07711C9.028 3.06414 9.916 3.27564 10.581 3.64577C10.406 2.37077 9.834 1.39207 9.237 0.694712L10.604 0.0821533C10.887 0.488198 11.176 1.2085 11.365 2.05651C11.748 1.36314 12.213 0.79747 12.84 0.432329C13.509 0.0422472 14.618 0.0212965 15.358 0.160968C15.171 0.817423 14.781 1.67042 13.867 2.2311C13.305 2.57529 12.4 2.75187 11.483 2.68303C11.525 2.96537 11.556 3.25569 11.57 3.548C12.252 3.18485 13.01 3.06513 13.813 3.07711C15.842 3.14794 18 4.93972 18 8.02646C18 10.0906 16.82 12.6626 15.098 14.0493H22V16.0446H2.5C2.224 16.0446 2 16.2681 2 16.5434C2 16.8188 2.224 17.0422 2.5 17.0422H22V19.0376H3.5C2.672 19.0376 2 19.708 2 20.534C2 21.3601 2.672 22.0305 3.5 22.0305H22V24.0258H3.5C1.568 24.0258 0 22.4615 0 20.534C0 19.706 0.29 18.9448 0.773 18.3462C0.297 17.8922 0 17.2518 0 16.5434C0 15.1667 1.12 14.0493 2.5 14.0493H6.902ZM22 21.0329H4V20.0352H22V21.0329ZM9.376 5.46948C7.733 6.69559 7.341 8.91138 8.956 12.054C8.201 11.6529 6.586 10.0118 6.604 8.11825C6.62 6.44618 8.017 5.39465 9.376 5.46948Z" fill="#1E1E1E"/>
</svg>
