<svg width="23" height="25" viewBox="0 0 23 25" fill="none" xmlns="http://www.w3.org/2000/svg">
<path d="M23 2.14557V24.0939H0V2.14557H2.875V3.14323C2.875 4.24364 3.73462 5.13853 4.79167 5.13853C5.84871 5.13853 6.70833 4.24364 6.70833 3.14323V2.14557H16.2917V3.14323C16.2917 4.24364 17.1513 5.13853 18.2083 5.13853C19.2654 5.13853 20.125 4.24364 20.125 3.14323V2.14557H23ZM21.0833 8.13149H1.91667V22.0986H21.0833V8.13149ZM19.1667 1.14792C19.1667 0.597217 18.7383 0.150269 18.2083 0.150269C17.6784 0.150269 17.25 0.597217 17.25 1.14792V3.14323C17.25 3.69393 17.6784 4.14088 18.2083 4.14088C18.7383 4.14088 19.1667 3.69393 19.1667 3.14323V1.14792ZM5.75 3.14323C5.75 3.69393 5.32162 4.14088 4.79167 4.14088C4.26171 4.14088 3.83333 3.69393 3.83333 3.14323V1.14792C3.83333 0.597217 4.26171 0.150269 4.79167 0.150269C5.32162 0.150269 5.75 0.597217 5.75 1.14792V3.14323ZM12.1584 16.5936C12.1584 15.7935 11.7578 15.1679 11.0956 14.9026C11.6016 14.6392 11.8967 14.0975 11.8967 13.4031C11.8967 12.0602 10.6394 11.2591 9.42329 11.2591C8.00783 11.2591 6.94025 12.182 6.87508 14.0156H8.45154C8.43812 13.2564 8.71125 12.7037 9.43383 12.7037C9.86412 12.7037 10.328 12.9751 10.328 13.5707C10.328 14.3229 9.54596 14.4307 8.82625 14.3658V15.6428C9.84879 15.6428 10.4592 15.7097 10.4592 16.6255C10.4592 17.3478 9.93408 17.671 9.41371 17.671C8.62596 17.671 8.303 17.0585 8.27521 16.2225H6.70929C6.67862 18.11 7.77688 19.1057 9.43288 19.1057C10.9116 19.1057 12.1584 18.1649 12.1584 16.5936ZM16.2917 19.1057V11.4058H14.9577C14.7919 12.5571 14.0041 12.8933 12.8771 12.8614V14.2042H14.652V19.1057H16.2917Z" fill="#1E1E1E"/>
</svg>