<svg width="20" height="25" viewBox="0 0 20 25" fill="none" xmlns="http://www.w3.org/2000/svg">
<path fill-rule="evenodd" clip-rule="evenodd" d="M20 0.847412V13.8169C20 17.2279 14.753 17.5531 11.744 16.8099C11.744 16.8099 13.266 24.7911 8.409 24.7911H0V0.847412H20ZM13.909 19.0276C15.956 19.5045 18.714 18.7493 20 17.8514C18.506 19.8437 14.769 23.545 12.568 24.7162C13.723 23.551 14.131 20.4922 13.909 19.0276ZM9 17.8075H4V18.8052H9V17.8075ZM9 15.8122H4V16.8099H9V15.8122ZM16 13.8169H4V14.8145H16V13.8169ZM16 11.8216H4V12.8192H16V11.8216ZM8.691 8.34477L6.636 8.34677L6.246 9.51602L5 9.51701L7.113 3.84137L8.199 3.84037L10.332 9.51302L9.086 9.51402L8.691 8.34477ZM13.064 6.3355L14.474 6.3345L14.475 7.35111L13.065 7.35211L13.066 8.94237L11.992 8.94336L11.991 7.3531L10.577 7.3541L10.576 6.3365L11.99 6.3355L11.989 4.81208L13.063 4.81109L13.064 6.3355ZM6.952 7.399L8.374 7.398L7.657 5.27499L6.952 7.399Z" fill="#1E1E1E"/>
</svg>
