<svg width="24" height="25" viewBox="0 0 24 25" fill="none" xmlns="http://www.w3.org/2000/svg">
<path d="M15.273 20.036C14.611 19.3755 13.691 19.0363 12.759 19.1072C10.992 19.2438 9.179 18.6383 7.828 17.2904C6.605 16.0693 5.998 14.4731 5.998 12.8748C5.998 12.2722 6.084 11.6697 6.256 11.087L10.027 14.8492C11.939 15.2652 14.679 12.5017 14.269 10.6171L10.5 6.85498C11.083 6.68438 11.687 6.59859 12.29 6.59859C13.893 6.59859 15.492 7.20316 16.718 8.42429C18.068 9.77212 18.675 11.5809 18.538 13.3427C18.466 14.2735 18.806 15.1914 19.468 15.8508L22.311 18.6871C23.377 16.8984 24 14.8163 24 12.5845C24 5.97306 18.627 0.612671 12 0.612671C5.373 0.612671 0 5.97306 0 12.5845C0 19.1959 5.373 24.5563 12 24.5563C14.236 24.5563 16.323 23.9348 18.115 22.8723L15.273 20.036Z" fill="#1E1E1E"/>
</svg>
